# xmcd CD database file
#
# Track frame offsets:
#	150
#	24864
#	39872
#	58102
#	85980
#	104937
#	121034
#	133597
#	148768
#	172876
#	194243
#	210548
#	223195
#	238731
#	261802
#
# Disc length: 3682 seconds
#
# Revision: 0
# Processed by: cddbd v1.5.2PL0 Copyright (c) Steve Scherf et al.
# Submitted via: CDex 1.70beta2
#
DISCID=e00e600f
DTITLE=Gilles Peterson - Fania DJ Series (Disc-1)
DYEAR=2008
DGENRE=Salsa
TTITLE0=Vente Conmigo - Fania All Stars 
TTITLE1=Wata Wasuri - Tito Puente 
TTITLE2=Chinito Boogaloo - Rafael Cortijo Y Su Bonche 
TTITLE3=Rush Hour In Hong Kong - Louie Ramirez 
TTITLE4=Shades Of Time - Roberto Roena 
TTITLE5=Coco Seco - Bobby Valentin 
TTITLE6=Mi Mambo Conga - Eddie Palmieri 
TTITLE7=Ya Yi Ki - Johnny Colon 
TTITLE8=Mambo Jazz - Richie Ray And Bobby Cruz 
TTITLE9=Mambo De Bataan - Joe Bataan
TTITLE10=Latin Soul Drive Is Here (Progreso Del Alma Latina) - Chollo Rivera 
TTITLE11=Tighten Up - Al Escobar 
TTITLE12=Freak Off - Orchestra Harlow 
TTITLE13=Acid - Ray Barretto 
TTITLE14=Wata Wasuri(Gilles Peterson Re-Edit) - Tito Puente
EXTD=YEAR: 2008
EXTT0=
EXTT1=
EXTT2=
EXTT3=
EXTT4=
EXTT5=
EXTT6=
EXTT7=
EXTT8=
EXTT9=
EXTT10=
EXTT11=
EXTT12=
EXTT13=
EXTT14=
PLAYORDER=
